<svg width="20" height="20" viewBox="0 0 20 20" fill="none" xmlns="http://www.w3.org/2000/svg">
<path d="M3.85036 1.50019C4.1266 1.19155 4.10034 0.717401 3.79169 0.441156C3.48305 0.164911 3.0089 0.191177 2.73266 0.499822C1.5317 1.84163 0.696051 3.51948 0.384601 5.37592C0.316067 5.78442 0.591667 6.17114 1.00017 6.23967C1.40868 6.3082 1.79539 6.0326 1.86393 5.6241C2.12704 4.05581 2.83301 2.63686 3.85036 1.50019Z" fill="#262626"/>
<path d="M17.267 0.499822C16.9908 0.191177 16.5166 0.164911 16.208 0.441156C15.8993 0.717401 15.873 1.19155 16.1493 1.50019C17.1666 2.63686 17.8726 4.05581 18.1357 5.6241C18.2043 6.0326 18.591 6.3082 18.9995 6.23967C19.408 6.17114 19.6836 5.78442 19.6151 5.37592C19.3036 3.51948 18.4679 1.84163 17.267 0.499822Z" fill="#262626"/>
<path fill-rule="evenodd" clip-rule="evenodd" d="M10 0.25C6.27215 0.25 3.25012 3.27197 3.25001 6.9998L3.24981 7.75C3.24981 9.87313 2.4488 11.8074 1.13126 13.2699C0.964764 13.4547 0.900734 13.71 0.960329 13.9516C1.01992 14.1931 1.19539 14.3893 1.42875 14.4755C2.97287 15.0455 4.58934 15.4659 6.2604 15.7192C6.25351 15.812 6.25001 15.9056 6.25001 16C6.25001 18.0711 7.92894 19.75 10 19.75C12.0711 19.75 13.75 18.0711 13.75 16C13.75 15.9056 13.7465 15.812 13.7396 15.7192C15.4105 15.4659 17.0269 15.0455 18.5709 14.4755C18.8042 14.3893 18.9797 14.1931 19.0393 13.9516C19.0989 13.71 19.0349 13.4547 18.8684 13.2699C17.5508 11.8074 16.7498 9.87313 16.7498 7.75V7.04919L16.75 7C16.75 3.27208 13.7279 0.25 10 0.25ZM7.75001 16C7.75001 15.9662 7.75075 15.9326 7.75221 15.8993C8.49266 15.966 9.24235 16 9.99981 16C10.7574 16 11.5072 15.9659 12.2478 15.8992C12.2493 15.9326 12.25 15.9662 12.25 16C12.25 17.2426 11.2427 18.25 10 18.25C8.75737 18.25 7.75001 17.2426 7.75001 16Z" fill="#262626"/>
</svg>
