<svg width="26" height="27" viewBox="0 0 26 27" fill="none" xmlns="http://www.w3.org/2000/svg">
    <path fill-rule="evenodd" clip-rule="evenodd" d="M19.341 0.633595C15.1559 -0.211361 10.8441 -0.211361 6.65901 0.633595C5.35685 0.907776 4.15663 1.53878 3.19257 2.45605C2.2285 3.37331 1.5386 4.54068 1.20001 5.8276L1.13701 6.0536C0.284 9.18691 0.284 12.4913 1.13701 15.6246L1.19901 15.8506C1.53814 17.1366 2.22802 18.303 3.19164 19.2197C4.15525 20.1363 5.35468 20.7671 6.65601 21.0416C8.41243 21.3974 10.1958 21.6041 11.987 21.6596V24.3876H9.63401C9.35766 24.3876 9.09262 24.4974 8.89721 24.6928C8.7018 24.8882 8.59201 25.1532 8.59201 25.4296C8.59201 25.706 8.7018 25.971 8.89721 26.1664C9.09262 26.3618 9.35766 26.4716 9.63401 26.4716H16.366C16.6424 26.4716 16.9074 26.3618 17.1028 26.1664C17.2982 25.971 17.408 25.706 17.408 25.4296C17.408 25.1532 17.2982 24.8882 17.1028 24.6928C16.9074 24.4974 16.6424 24.3876 16.366 24.3876H14.01V21.6616C15.8012 21.605 17.5844 21.3983 19.341 21.0436C20.6431 20.7695 21.8432 20.1386 22.8072 19.2216C23.7713 18.3045 24.4613 17.1373 24.8 15.8506L24.863 15.6246C25.716 12.4913 25.716 9.18691 24.863 6.0536L24.8 5.8276C24.4614 4.54112 23.7718 3.37414 22.8081 2.45709C21.8444 1.54003 20.6447 0.909029 19.343 0.634596L19.341 0.633595ZM16.01 12.5006L16.044 12.4696L18.253 10.4166C18.4121 10.2657 18.507 10.0594 18.518 9.84041C18.529 9.62143 18.4552 9.40663 18.312 9.24059C18.2426 9.15961 18.1574 9.09354 18.0617 9.04636C17.966 8.99917 17.8618 8.97186 17.7553 8.96607C17.6487 8.96027 17.5421 8.97612 17.4419 9.01264C17.3416 9.04917 17.2498 9.10562 17.172 9.1786L14.963 11.2306C14.813 11.3733 14.659 11.5116 14.501 11.6456C14.3803 11.4756 14.2647 11.3019 14.154 11.1246L13.19 9.6306L13.165 9.5926C13.0034 9.32824 12.8246 9.0747 12.63 8.8336C12.4032 8.5436 12.0747 8.35058 11.711 8.2936C11.3464 8.25576 10.9811 8.3588 10.69 8.5816C10.4435 8.76565 10.2096 8.9661 9.99001 9.18159L9.95601 9.21259L7.74901 11.2636C7.58978 11.4143 7.49472 11.6206 7.48354 11.8396C7.47237 12.0586 7.54595 12.2734 7.68901 12.4396C7.75832 12.5208 7.84337 12.587 7.93903 12.6344C8.03469 12.6817 8.13896 12.7092 8.24553 12.7151C8.3521 12.721 8.45876 12.7052 8.55906 12.6687C8.65935 12.6321 8.75119 12.5756 8.82901 12.5026L11.038 10.4516C11.254 10.2516 11.394 10.1226 11.5 10.0366C11.581 10.1456 11.685 10.3056 11.847 10.5556L12.812 12.0556L12.837 12.0936C12.9986 12.3573 13.1774 12.6102 13.372 12.8506C13.5991 13.1404 13.9274 13.3337 14.291 13.3916C14.6554 13.4281 15.0199 13.324 15.31 13.1006C15.5559 12.9157 15.7897 12.7153 16.01 12.5006Z" fill="#262626"/>
</svg>
